<svg width="24" height="24" viewBox="0 0 24 24" fill="none" xmlns="http://www.w3.org/2000/svg">
<mask id="mask0_1612_2120" style="mask-type:alpha" maskUnits="userSpaceOnUse" x="0" y="0" width="24" height="24">
<rect width="24" height="24" fill="#D9D9D9"/>
</mask>
<g mask="url(#mask0_1612_2120)">
<path d="M14.3886 17.1114C14.0903 17.4097 13.6057 17.4062 13.3117 17.1038C13.0236 16.8073 13.027 16.3345 13.3193 16.0422L16.6115 12.75H5.25C4.83579 12.75 4.5 12.4142 4.5 12C4.5 11.5858 4.83579 11.25 5.25 11.25H16.6115L13.3193 7.95781C13.027 7.66552 13.0236 7.19267 13.3117 6.89624C13.6057 6.59377 14.0903 6.59031 14.3886 6.88856L18.9793 11.4793C19.2669 11.7669 19.2669 12.2331 18.9793 12.5207L14.3886 17.1114Z" fill="#121316"/>
</g>
</svg>
